<?xml version="1.0" encoding="UTF-8"?>
<!DOCTYPE svg PUBLIC "-//W3C//DTD SVG 1.1//EN" "http://www.w3.org/Graphics/SVG/1.1/DTD/svg11.dtd">
<!-- Creator: CorelDRAW -->
<svg xmlns="http://www.w3.org/2000/svg" xml:space="preserve" width="2.23333in" height="0.370504in" style="shape-rendering:geometricPrecision; text-rendering:geometricPrecision; image-rendering:optimizeQuality; fill-rule:evenodd; clip-rule:evenodd"
viewBox="0 0 0.9675 0.160506"
 xmlns:xlink="http://www.w3.org/1999/xlink">
 <defs>
  <style type="text/css">
   <![CDATA[
    .fil2 {fill:none;fill-rule:nonzero}
    .fil3 {fill:#16A89E}
    .fil0 {fill:#16A89E;fill-rule:nonzero}
    .fil1 {fill:#253938;fill-rule:nonzero}
   ]]>
  </style>
 </defs>
 <g id="Layer_x0020_1">
  <metadata id="CorelCorpID_0Corel-Layer"/>
  <g id="_147276280">
   <path id="_147277432" class="fil0" d="M0.677991 0.133696c-0.00547651,0.00819686 -0.0125716,0.014712 -0.0212818,0.0195319l-1.19388e-005 6.82219e-006 1.70555e-006 3.41109e-006c-0.00437814,0.00242188 -0.00894389,0.0042434 -0.0136904,0.00545093 -0.00475336,0.00121094 -0.00969433,0.00181641 -0.0148161,0.00181641 -0.0082719,0 -0.0159537,-0.00145995 -0.0230351,-0.00437473 -0.00708484,-0.00291478 -0.0135318,-0.00727416 -0.019329,-0.013073 -0.00579545,-0.00579545 -0.0101599,-0.0122237 -0.0130747,-0.0192761 -0.00291307,-0.0070405 -0.00437302,-0.0146728 -0.00437302,-0.0228799 0,-0.00814228 0.00145995,-0.0157303 0.00437302,-0.0227349 0.00291307,-0.00700809 0.00727416,-0.0134158 0.0130747,-0.0192164 0.00579715,-0.00579715 0.0122441,-0.0101599 0.019329,-0.0130764 0.00708143,-0.00291137 0.0147632,-0.00437132 0.0230351,-0.00437132 0.0141168,0 0.0263984,0.00398245 0.0368159,0.0119371 0.00520362,0.00397392 0.00958688,0.00868464 0.0131327,0.0141117l5.11664e-006 -1.70555e-006c0.00326271,0.00499555 0.00582444,0.0106204 0.00767325,0.0168576 0.000489492,0.00146848 0.000257538,0.00288067 -0.000651519,0.00423828 -0.000777729,5.28719e-005 -0.00169361,5.96941e-005 -0.00235536,0.000110861 -0.00577839,0.000242188 -0.0136256,0.000361576 -0.0235502,0.000361576 -0.0133647,0 -0.0382213,-3.58165e-005 -0.074558,-0.000109155 -0.000474142,0.00168849 -0.000849362,0.00339063 -0.00111372,0.00509447 -0.000356459,0.00225473 -0.000533836,0.00459474 -0.000533836,0.00700468 0,0.00642138 0.00106767,0.0123243 0.00319619,0.0176985 0.00212852,0.00537247 0.00533836,0.0102691 0.00961246,0.0146779 0.00426387,0.0043969 0.00903599,0.00769372 0.0143044,0.00988876 0.00526673,0.00218822 0.0110724,0.00328829 0.0174,0.00328829 0.00410866,0 0.00806553,-0.000469025 0.011857,-0.00140366 0.00380849,-0.000939756 0.00748223,-0.00235195 0.0109957,-0.00422293 0.00352536,-0.00187781 0.00667721,-0.00409161 0.00944702,-0.00662605l-5.11664e-006 -5.11664e-006c0.00276981,-0.00254468 0.00517292,-0.00542023 0.00719911,-0.00862154 0.000718035,-0.00114442 0.00223085,-0.00148724 0.00337528,-0.000769201 9.55106e-005,5.96941e-005 0.000184199,0.00012621 0.000267771,0.000194432l1.70555e-006 -1.70555e-006c0.000380337,0.000318937 0.00113419,0.000902234 0.00224109,0.00174307 0.00135761,0.00102674 0.00283291,0.00213023 0.00450094,0.00336675 0.00107108,0.00079649 0.00130815,0.00229737 0.000540658,0.00338039zm-0.086507 -0.058942l0.0737188 0c-0.00145313,-0.00198014 -0.00305293,-0.00382895 -0.00479941,-0.00554303 -0.00279198,-0.00274422 -0.00597623,-0.00516098 -0.00953912,-0.00723834 -0.00709678,-0.00413936 -0.0148655,-0.00620989 -0.0232944,-0.00620989 -0.00842711,0 -0.0158241,0.00187951 -0.0221857,0.0056283 -0.00531107,0.00313309 -0.00994845,0.00758968 -0.0139002,0.013363z"/>
   <path id="_147276976" class="fil0" d="M0.529475 0.160297l-0.0108046 0c-0.000289943,0 -0.000569653,-4.94608e-005 -0.000823779,-0.000143266 -0.00100457,-0.000306998 -0.00190168,-0.000963634 -0.00267089,-0.00195797l-5.79886e-005 -7.84551e-005c-0.000610586,-0.000810135 -0.00116318,-0.00186075 -0.00164585,-0.00315185l-3.41109e-006 3.41109e-006c-0.000465614,-0.00124505 -0.000816957,-0.00245087 -0.00104721,-0.00360894l-3.06998e-005 -0.000184199c-0.00012621,-0.00067028 -0.000216604,-0.00132692 -0.000271182,-0.00196479 -0.00338551,0.00302734 -0.00708484,0.00543728 -0.0111048,0.00722981 -0.00576645,0.00256685 -0.0121486,0.00385624 -0.0191294,0.00385624 -0.00618431,0 -0.0119422,-0.00105744 -0.017267,-0.00316891 -0.0053213,-0.00210806 -0.0101821,-0.00526843 -0.0145637,-0.0094709 -0.00438325,-0.00420247 -0.0076886,-0.00885861 -0.00989899,-0.0139667 -0.00221892,-0.00512005 -0.00332923,-0.0106511 -0.00332923,-0.0165813 0,-0.00593019 0.00111031,-0.0114613 0.00332923,-0.0165813 0.00221039,-0.005103 0.00551574,-0.00976425 0.00989899,-0.0139667 0.00438155,-0.00419906 0.00924406,-0.00736114 0.0145637,-0.0094709 0.00532472,-0.00211147 0.0110826,-0.00316891 0.017267,-0.00316891 0.00685289,0 0.0131378,0.00130815 0.0188361,0.00392105 0.00396198,0.001813 0.0076272,0.00425534 0.0109905,0.00731679l0.000150088 -0.0150173 -1.02333e-005 0c0,-0.00364134 -0.00130133,-0.00682219 -0.00389376,-0.009534 -0.00128598,-0.00134568 -0.00271864,-0.00235877 -0.0042758,-0.00302052 -0.00155034,-0.000661752 -0.00327977,-0.000992628 -0.00516951,-0.000992628 -0.00375561,0 -0.00726904,0.00163221 -0.0105283,0.00489151 -0.000856184,0.000856184 -0.00218992,0.000948284 -0.00314673,0.000272887 -0.0012621,-0.000774318 -0.00256685,-0.00161856 -0.00390741,-0.0025225 -0.00140366,-0.000943167 -0.00288237,-0.00198696 -0.00443101,-0.00311092 -0.00109496,-0.000793079 -0.00134056,-0.00232978 -0.00054748,-0.00342474 7.1633e-005,-9.89217e-005 0.000144971,-0.000189316 0.000228543,-0.000272887 0.0029523,-0.00351172 0.00623036,-0.00616896 0.0098086,-0.00795808l5.11664e-006 -1.70555e-006 -5.11664e-006 -6.82219e-006c0.00366692,-0.00183176 0.00763573,-0.00275275 0.0119013,-0.00275275 0.00390229,0 0.00751975,0.000656635 0.0108387,0.00196308 0.00333605,0.00131327 0.00635487,0.00328659 0.00904963,0.00590631 0.00268282,0.00260778 0.00474312,0.00556349 0.00617237,0.00885861l1.70555e-006 0c0.00142243,0.00327465 0.00221209,0.00687847 0.00236048,0.0107893l1.70555e-006 8.52773e-005 6.82219e-006 0 0 0.00103868 0 0.0755574c0.000318937,0.00276469 0.000883473,0.00499555 0.00168167,0.00668233 0.000707802,0.00149235 0.00158786,0.00252933 0.0026436,0.0031058 0.00118535,0.000644697 0.00162197,0.00213193 0.000977278,0.00331729 -0.000441737,0.00081184 -0.00128257,0.00127404 -0.00214899,0.00127745l0 6.82219e-006zm-0.0182476 -0.0433942c0,-0.00789327 -0.00289602,-0.0146131 -0.00868976,-0.0201493 -0.0029199,-0.00279539 -0.00614508,-0.00488639 -0.00966874,-0.006273 -0.0035356,-0.00139173 -0.0074106,-0.00208759 -0.0116079,-0.00208759 -0.00419735,0 -0.00807065,0.000697569 -0.0116062,0.00208759 -0.00352195,0.00138661 -0.00674714,0.00347761 -0.00966874,0.006273 -0.00290284,0.00277834 -0.00508253,0.00584661 -0.00652542,0.0091946 -0.00144119,0.00334117 -0.00216263,0.00699445 -0.00216263,0.0109547 0,0.0079018 0.00290113,0.0146609 0.00869658,0.0202636 0.00292501,0.0028295 0.0061502,0.00494779 0.00967045,0.00634975 0.00352195,0.00140196 0.00739184,0.00210464 0.011596,0.00210464 0.00420758,0 0.00807576,-0.000702685 0.0115994,-0.00210464 0.00351854,-0.00140196 0.00674544,-0.00352025 0.00967045,-0.00634975 0.00290625,-0.00281074 0.00509106,-0.00590801 0.00653565,-0.00927306 0.00143778,-0.00335652 0.00216093,-0.00702173 0.00216093,-0.0109905z"/>
   <path id="_147277384" class="fil0" d="M0.18872 0.100487c0,0.0164705 -0.00581932,0.0305225 -0.0174512,0.042156 -0.00579545,0.00579545 -0.0122237,0.0101548 -0.0192744,0.013073 -0.00703879,0.00291478 -0.0146745,0.00437473 -0.0228816,0.00437473 -0.00820368,0 -0.0158445,-0.00145995 -0.0229072,-0.00437473 -0.00705073,-0.00290966 -0.0135062,-0.00727074 -0.0193443,-0.013073 -0.0117052,-0.0116352 -0.017562,-0.0256906 -0.017562,-0.042156 0,-0.0163289 0.00585685,-0.0303161 0.017562,-0.0419513 0.00583809,-0.00580227 0.0122919,-0.0101651 0.0193443,-0.0130764 0.00706267,-0.00291137 0.0147035,-0.00437132 0.0229072,-0.00437132 0.00820709,0 0.0158394,0.00145995 0.0228816,0.00437132 0.00704732,0.00291648 0.0134789,0.00728098 0.0192744,0.0130764 0.0116318,0.0116335 0.0174512,0.0256173 0.0174512,0.0419513zm-0.0140537 0.000204666c0,-0.00626618 -0.00112225,-0.0120565 -0.00335822,-0.0173642 -0.00224279,-0.00532301 -0.0056283,-0.0102162 -0.0101412,-0.0146609 -0.00450776,-0.00444295 -0.00948454,-0.007779 -0.0149201,-0.0099945 -0.00543046,-0.0022155 -0.0113538,-0.00332411 -0.0177581,-0.00332411 -0.0127728,0 -0.0236679,0.00443954 -0.0326783,0.0133186 -0.00899676,0.00886543 -0.013496,0.0195439 -0.013496,0.032025 0,0.0126227 0.00450094,0.0233711 0.013496,0.0322365 0.00450776,0.00444295 0.00948625,0.00777729 0.0149218,0.0099928 0.00542875,0.0022155 0.0113555,0.00332582 0.0177564,0.00332582 0.0127762,0 0.0236696,-0.00444124 0.0326783,-0.0133186 0.00450605,-0.00443954 0.00788474,-0.00934639 0.0101309,-0.0147035 0.0022445,-0.00535712 0.00336845,-0.0112071 0.00336845,-0.017533z"/>
   <path id="_147277720" class="fil1" d="M0.962539 0.0441447l0 6.31052e-005 0 0.113615c0,0.00135591 -0.00109837,0.00245428 -0.00245428,0.00245428l-6.31052e-005 0 -0.00908033 0c-0.0013542,0 -0.00245428,-0.00109837 -0.00245428,-0.00245428l8.52773e-006 -0.000214899 -0.000204666 -0.113463c0,-0.00135079 0.00109326,-0.00244575 0.00244405,-0.00244575l0 -8.52773e-006 0.00934981 0c0.00135591,0 0.00245428,0.00109837 0.00245428,0.00245428zm-0.239085 -0.0440202l0 0.00976937c-0.00792397,-0.00188463 -0.0158496,0.00139002 -0.0193972,0.00888078 -0.000335993,0.000712918 -0.000617408,0.00144971 -0.000847657,0.00221209 -0.000535542,0.00177206 -0.000784551,0.00368398 -0.000745324,0.00573916 0.000139855,0.00485057 0.00381019,0.0119866 0.0110144,0.021408 0.0110861,0.0144085 0.017736,0.0234137 0.0199515,0.0270159 0.00706778,0.0116369 0.0106,0.022723 0.0106,0.0332513 0,0.0135796 -0.00422634,0.0247304 -0.012679,0.0334594 -0.00789668,0.00817468 -0.0185649,0.0132333 -0.0320029,0.0151725 -0.00494267,0.00116318 -0.0103697,0.000828896 -0.0154352,0.000828896l0 -0.0105966c0.000805018,0 0.0015981,-1.53499e-005 0.00238094,-3.58165e-005 0.0105181,-0.000320643 0.0192096,-0.0027681 0.0260727,-0.00734579 0.000646402,-0.000429798 0.00127404,-0.000878356 0.00188804,-0.00134738 0.00997574,-0.00748223 0.0149645,-0.0175262 0.0149645,-0.0301353 0,-0.00928158 -0.00353219,-0.0191209 -0.0106,-0.0295111 -0.00664993,-0.00858913 -0.0132999,-0.01718 -0.0199515,-0.0257691 -0.00705073,-0.00995527 -0.0106511,-0.0189452 -0.0108029,-0.0269698l-3.41109e-006 -4.94608e-005 -1.70555e-006 -0.000924406c8.35718e-005,-0.00641115 0.00244064,-0.0121281 0.00706778,-0.0171527 0.0023366,-0.00253615 0.00489662,-0.00446342 0.00768178,-0.00577669 0.0063975,-0.00301882 0.0139718,-0.00212341 0.0208452,-0.00212341zm0.136652 0.133551c-0.00547651,0.00819686 -0.0125716,0.014712 -0.0212818,0.0195319l-1.19388e-005 8.52773e-006 1.70555e-006 1.70555e-006c-0.00437814,0.00242358 -0.00894389,0.00424511 -0.0136921,0.00545263 -0.00475165,0.00120923 -0.00969262,0.00181641 -0.0148127,0.00181641 -0.00827361,0 -0.0159554,-0.00146165 -0.0230385,-0.00437473 -0.00708313,-0.00291648 -0.0135301,-0.00727586 -0.0193273,-0.013073 -0.00579545,-0.00579545 -0.0101599,-0.0122254 -0.013073,-0.0192778 -0.00291478,-0.00703879 -0.00437473,-0.0146711 -0.00437473,-0.0228799 0,-0.00814228 0.00145995,-0.0157285 0.00437473,-0.0227349 0.00290966,-0.00700809 0.00727245,-0.0134141 0.013073,-0.0192147 0.00579715,-0.00579886 0.0122441,-0.0101599 0.0193273,-0.0130764 0.00708313,-0.00291137 0.0147649,-0.00437132 0.0230385,-0.00437132 0.0141168,0 0.0263967,0.00398075 0.0368142,0.0119371 0.00520362,0.00397392 0.00958517,0.00868464 0.0131327,0.0141117l5.11664e-006 -3.41109e-006c0.00326271,0.00499555 0.00582444,0.0106221 0.00767325,0.0168593 0.000487786,0.00146848 0.000257538,0.00287896 -0.000649813,0.00423658 -0.000779435,5.45775e-005 -0.00169531,5.96941e-005 -0.00235707,0.000110861 -0.00577839,0.000242188 -0.0136256,0.000363281 -0.0235502,0.000363281 -0.0133664,0 -0.0382213,-3.7522e-005 -0.074558,-0.000110861 -0.000474142,0.00168849 -0.000849362,0.00339063 -0.00111543,0.00509617 -0.000354754,0.00225303 -0.00053213,0.00459304 -0.00053213,0.00700297 0,0.00642138 0.00106767,0.012326 0.00319619,0.0176985 0.00212852,0.00537418 0.00533836,0.0102708 0.00961246,0.0146796 0.00426387,0.00439519 0.00903599,0.00769201 0.0143027,0.00988705 0.00526843,0.00218992 0.0110741,0.00329 0.0174017,0.00329 0.00410866,0 0.00806553,-0.000469025 0.011857,-0.00140537 0.00380849,-0.000939756 0.00748053,-0.00235024 0.0109957,-0.00422123 0.00352536,-0.00187781 0.00667721,-0.00409161 0.00944532,-0.00662775l-3.41109e-006 -5.11664e-006c0.00276981,-0.00254297 0.00517292,-0.00542023 0.00719911,-0.00862154 0.000718035,-0.00114272 0.00223085,-0.00148724 0.00337528,-0.000767496 9.55106e-005,5.79886e-005 0.000184199,0.000124505 0.000267771,0.000194432l1.70555e-006 -3.41109e-006c0.000380337,0.000318937 0.00113419,0.00090394 0.00224109,0.00174307 0.00135761,0.00102844 0.00283291,0.00213023 0.00450264,0.00336845 0.00106938,0.000794785 0.00130474,0.00229737 0.000538953,0.00337869zm-0.086507 -0.0589403l0.0737188 0c-0.00145313,-0.00198184 -0.00305463,-0.00383066 -0.00479941,-0.00554303 -0.00279369,-0.00274422 -0.00597623,-0.00516269 -0.00953912,-0.00724004 -0.00709678,-0.00413766 -0.0148655,-0.00620989 -0.0232944,-0.00620989 -0.00842711,0 -0.0158258,0.00188122 -0.0221857,0.0056283 -0.00531107,0.00313309 -0.00994845,0.00759139 -0.0139002,0.0133647zm0.0999399 0.00988705l-3.06998e-005 -0.0122117 -8.52773e-006 0c0,-0.00427751 0.000787962,-0.00825314 0.00235536,-0.0119235 0.0015674,-0.00366181 0.00391082,-0.00699956 0.00702515,-0.010003 0.00310068,-0.00298641 0.00654759,-0.00523432 0.0103305,-0.00674203 0.0037829,-0.00150429 0.00787451,-0.00225814 0.0122526,-0.00225814 0.00979666,0 0.0173625,0.00257026 0.0226872,0.00770225 0.00527526,0.00509106 0.00822756,0.0125903 0.00884326,0.0224876l2.04666e-005 0.000318937 0 0.0857668 0 6.31052e-005c0,0.00135591 -0.00110008,0.00245428 -0.00245428,0.00245428l-0.00929011 0 -6.31052e-005 0c-0.0013542,0 -0.00245428,-0.00109837 -0.00245428,-0.00245428l0 -0.0837509c0,-0.00247645 -0.000402509,-0.00476018 -0.00120582,-0.00683412 -0.000801607,-0.00207394 -0.00201937,-0.00398927 -0.00363793,-0.00573405 -0.00156569,-0.00168337 -0.0033224,-0.00295742 -0.00525991,-0.00380507l-0.000127916 -5.11664e-005c-0.00198867,-0.000854479 -0.00420417,-0.00128087 -0.0066414,-0.00128087 -0.00245769,0 -0.00473289,0.000431503 -0.00681025,0.00128769 -0.00208929,0.000864712 -0.00403362,0.00217798 -0.0058125,0.00392617 -0.00177888,0.00174648 -0.00310921,0.0036601 -0.00398416,0.00572552 -0.000868123,0.00205348 -0.00130474,0.00431162 -0.00130474,0.0067659l0 0.0836878 0 6.31052e-005c0,0.00135591 -0.00110008,0.00245428 -0.00245599,0.00245428l-0.00935151 0 0 -8.52773e-006c-0.00135079,0 -0.00244575,-0.00109496 -0.00244575,-0.00244575l-0.000163732 -0.0682884 -1.19388e-005 -0.00491197z"/>
   <path id="_147277144" class="fil0" d="M0.566052 0.0559709l-6.31052e-005 0 -0.00298641 0c-0.00208929,0.000179082 -0.00369762,0.000637874 -0.00481135,0.00136444 -0.000861301,0.000559419 -0.00144289,0.00132692 -0.00173625,0.00228543l0 0.0982224c0,0.0013542 -0.00110008,0.00245428 -0.00245428,0.00245428l-6.48108e-005 0 -0.00907862 0c-0.00135591,0 -0.00245428,-0.00110008 -0.00245428,-0.00245428l0 -6.48108e-005 0 -0.113615c0,-0.0013542 0.00109837,-0.00245428 0.00245428,-0.00245428l6.31052e-005 0 0.00908033 0c0.000789668,0 0.00149235,0.00037522 0.00194091,0.000955106 0.000337698,-0.000110861 0.000682219,-0.000216604 0.00104209,-0.000306998 0.00168337,-0.000429798 0.00367375,-0.000648108 0.00595236,-0.000648108 0.000395687,0 0.000932934,4.77553e-005 0.0015981,0.000127916l0 -6.82219e-006c0.000520192,6.31052e-005 0.00117342,0.000168849 0.00193068,0.000298471 0.00119559,0.000201254 0.00203813,0.00124334 0.00203813,0.00241505l5.11664e-006 0 0 0.00897288c0,0.0013542 -0.00110008,0.00245428 -0.00245599,0.00245428z"/>
   <path id="_147276448" class="fil0" d="M0.349084 0.160091c-0.00868294,0 -0.0161464,-0.00300176 -0.0223751,-0.00900358 -0.00311433,-0.00300006 -0.00545945,-0.00633781 -0.00702515,-0.00999962 -0.0015674,-0.00367375 -0.00235536,-0.00764938 -0.00235536,-0.0119235l0 -0.085001c0,-0.0013542 0.00109837,-0.00245428 0.00245428,-0.00245428l6.31052e-005 0 0.00928841 0c0.00135591,0 0.00245599,0.00110008 0.00245599,0.00245428l0 6.48108e-005 0 0.083275c0,0.00245258 0.00043662,0.00471072 0.00130474,0.00676249 0.00087324,0.00206712 0.00220527,0.00397904 0.00398245,0.00572723 0.00177718,0.00174989 0.00371809,0.00305975 0.0058125,0.00392446 0.00207906,0.000856184 0.00435255,0.00128939 0.00681025,0.00128939 0.00251739,0 0.00478065,-0.000428092 0.00678296,-0.00127916 0.00198867,-0.000844246 0.00377096,-0.00213023 0.00532983,-0.00383919 0.00159127,-0.00174477 0.00278516,-0.00367716 0.00357141,-0.00577839 0.000789668,-0.00211317 0.00118706,-0.0044583 0.00118706,-0.00701662l0 -0.08313c0,-0.0013542 0.00110008,-0.00245428 0.00245599,-0.00245428l6.31052e-005 0 0.00928841 0c0.00135591,0 0.00245599,0.00110008 0.00245599,0.00245428l0 6.48108e-005 0 0.0850931c0.000191021,0.00222403 0.000723152,0.0042758 0.00158957,0.00614167l5.96941e-005 0.000133033c0.000871534,0.00183517 0.00208247,0.00351343 0.0036277,0.00500919l8.52773e-006 1.02333e-005c0.0015674,0.00153499 0.00330876,0.00268794 0.00521386,0.00344691 0.00191021,0.000760674 0.00403703,0.00114442 0.00637363,0.00114442 0.00252762,0 0.00484546,-0.000433209 0.00694157,-0.00128939 0.00209271,-0.000856184 0.00401827,-0.00216775 0.00576475,-0.00391593l0.000138149 -0.000127916c0.00168508,-0.00169702 0.0029506,-0.00353901 0.00378461,-0.00551915 0.000854479,-0.00201596 0.00128257,-0.00422293 0.00128257,-0.0066107l0 -0.0835803c0,-0.0013542 0.00109837,-0.00245428 0.00245428,-0.00245428l6.31052e-005 0 0.00928841 0c0.00135591,0 0.00245599,0.00110008 0.00245599,0.00245428l-1.02333e-005 0.000214899 0.000208077 0.0848202 1.02333e-005 0c0,0.0042758 -0.000787962,0.00825484 -0.00235877,0.0119201 -0.0015691,0.0036584 -0.00391082,0.00698933 -0.00702515,0.00996892 -0.00309557,0.00298471 -0.00654418,0.00523773 -0.0103288,0.00674203 -0.0037829,0.0015077 -0.00787451,0.00226155 -0.0122544,0.00226155 -0.00565048,0 -0.0107057,-0.00114783 -0.015147,-0.00344691 -0.0035356,-0.00182493 -0.00666357,-0.00437302 -0.00937539,-0.00763403 -0.00270329,0.00325418 -0.00580739,0.00579715 -0.00931399,0.0076255 -0.00441566,0.00230249 -0.00942314,0.00345544 -0.015002,0.00345544z"/>
   <path id="_147276496" class="fil0" d="M0.308231 0.146781c0,0.00239288 -0.00012621,0.00428263 -0.000347931,0.00566924 -0.000252421,0.0013849 -0.000631052,0.00243381 -0.0011376,0.00306487 -0.000474142,0.000671985 -0.00123311,0.00130133 -0.0022138,0.00184711 -0.000978984,0.000586708 -0.00211829,0.00104891 -0.0033821,0.00142754 -0.00126552,0.000378631 -0.00259243,0.000671985 -0.00401486,0.000924406 -0.00142413,0.000250715 -0.00284656,0.000376926 -0.00426898,0.000376926 -0.00433038,0 -0.00803653,-0.000729974 -0.011127,-0.00226667 -0.0030751,-0.00152817 -0.00464932,-0.00380166 -0.00662264,-0.00688529 -0.00197843,-0.00308874 -0.0034145,-0.00697398 -0.00430139,-0.0117154 -0.000880062,-0.00470219 -0.00132692,-0.0102452 -0.00132692,-0.0166683l0 -0.061809 -0.0126637 0c-0.000914173,0 -0.00163732,-0.000637874 -0.00221209,-0.00197332 -0.000559419,-0.00130474 -0.000822073,-0.00151282 -0.000822073,-0.00445148 0,-0.00155375 6.31052e-005,-0.000929523 0.000221721,-0.00201596 0.000151794,-0.00104721 0.000342815,-0.00193921 0.000600352,-0.0026453 0.000243893,-0.000673691 0.000569653,-0.00117683 0.000978984,-0.00147018 0.000411037,-0.000293354 0.000854479,-0.000419564 0.00132862,-0.000419564l0.0125682 0 0 -0.0330808c0,-0.000588414 9.72161e-005,-0.00109667 0.000315526,-0.00159639 0.00021831,-0.000499725 0.000605469,-0.000915878 0.0012007,-0.00130133 0.000573064,-0.000370104 0.00136103,-0.000627641 0.00237242,-0.000798196 0.000978984,-0.000165438 0.00221209,-0.000252421 0.00369933,-0.000252421 0.00154864,0 0.00184711,8.52773e-005 0.0028278,0.000252421 0.000980689,0.000168849 0.00177036,0.000419564 0.0023076,0.000798196 0.000569653,0.000376926 0.000951695,0.000801607 0.00120241,0.00130133 0.000250715,0.000499725 0.000378631,0.0010148 0.000378631,0.00159639l0 0.0330808 0.0214046 0c0.000472436,0 0.000922701,0.000119388 0.00129451,0.000419564 0.000351343,0.000281415 0.000692452,0.000805018 0.000949989,0.00147018 0.000274593,0.000714624 0.000494608,0.0015998 0.000600352,0.0026453 0.000109155,0.00108984 0.000189316,0.000462203 0.000189316,0.00201596 0,0.00293866 -0.000262654,0.00314673 -0.000822073,0.00445148 -0.000574769,0.00133544 -0.00129792,0.00197332 -0.00221209,0.00197332l-0.0214046 0 0 0.0588703c0,0.00763744 0.000835718,0.013409 0.00252933,0.0172977 0.00168849,0.00387671 0.00474142,0.00583638 0.00913661,0.00583638 0.00142243,0 0.00268794,-0.000209782 0.00379484,-0.000545775 0.00110519,-0.000378631 0.00211829,-0.000798196 0.00297106,-0.00117512 0.000854479,-0.000419564 0.00161345,-0.000798196 0.00221209,-0.00117683 0.000634463,-0.000376926 0.00117,-0.000545775 0.00167655,-0.000545775 0.000315526,0 0.000600352,8.52773e-005 0.000885179,0.000293354 0.000284826,0.000211488 0.000474142,0.000590119 0.000632758,0.00117683 0.00015691,0.000588414 0.000315526,0.00134397 0.000411037,0.00230931 0.00012621,0.00100798 0.000189316,0.00222574 0.000189316,0.00369421z"/>
   <path id="_147276568" class="fil0" d="M0.247086 0.0240516c0,-0.00239288 -0.000112566,-0.0033224 -0.000347931,-0.00470219 -0.000237071,-0.00139002 -0.000648108,-0.00241505 -0.0011376,-0.00306657 -0.000489492,-0.000649813 -0.00120241,-0.0014156 -0.0022138,-0.00184711 -0.00879891,-0.00375732 -0.0220936,-0.002676 -0.0288851,0.00588414 -0.00310921,0.00392105 -0.00615873,0.0102555 -0.00615873,0.018309l0 0.00969433 -0.0165233 0c-0.000892001,0 -0.00164926,0.000651519 -0.00221209,0.00197332 -0.000549186,0.0012911 -0.000822073,0.00151282 -0.000822073,0.00445148 0,0.00155375 7.33385e-005,0.000943167 0.000221721,0.00201766 0.00014156,0.00103186 0.000354754,0.00195115 0.000600352,0.0026453 0.00023366,0.000658341 0.000569653,0.00117683 0.000978984,0.00147018 0.000411037,0.000293354 0.000854479,0.000419564 0.00132862,0.000419564l0.0164278 0 0 0.0948437c0,0.000586708 0.000107449,0.00110861 0.000315526,0.00159639 0.000209782,0.000486081 0.000605469,0.000915878 0.00120241,0.00129963 0.000571358,0.000370104 0.00135932,0.000629347 0.00237071,0.000798196 0.000978984,0.000165438 0.00221209,0.000252421 0.00369933,0.000252421 0.00154864,0 0.00184881,-8.35718e-005 0.0028278,-0.000252421 0.000980689,-0.000167144 0.00177036,-0.000419564 0.0023076,-0.000798196 0.000569653,-0.000376926 0.000961928,-0.000813546 0.00120241,-0.00129963 0.000240482,-0.000487786 0.000380337,-0.00104209 0.000380337,-0.00159639l0 -0.0948437 0.0214029 0c0.000474142,0 0.000932934,-0.000133033 0.00129451,-0.000419564 0.000341109,-0.000269476 0.000702685,-0.000818662 0.000949989,-0.00147018 0.000266065,-0.000702685 0.000504842,-0.00161515 0.000600352,-0.0026453 0.000100627,-0.00107791 0.000189316,-0.000463909 0.000189316,-0.00201766 0,-0.00293866 -0.000271182,-0.00316038 -0.000822073,-0.00445148 -0.00056283,-0.0013235 -0.00131839,-0.00197332 -0.00221209,-0.00197332l-0.0214029 0 0 -0.00675567c0,-0.0134056 0.00750952,-0.0153499 0.0154591,-0.0129383 0.0011069,0.000376926 0.00211829,0.00079649 0.00297106,0.00117512 0.000854479,0.000419564 0.00161345,0.000798196 0.0022138,0.00117512 0.000632758,0.000378631 0.00117,0.000545775 0.00167485,0.000545775 0.000315526,0 0.000600352,-8.35718e-005 0.000885179,-0.000293354 0.000284826,-0.000209782 0.000474142,-0.000588414 0.000632758,-0.00117683 0.000158616,-0.000586708 0.000315526,-0.00134227 0.000411037,-0.00230931 0.00012621,-0.00100627 0.000189316,-0.00222403 0.000189316,-0.00369421z"/>
   <path id="_147276256" class="fil0" d="M0.0395414 0.00230931l0 0.00976937c-0.00792226,-0.00188633 -0.0158496,0.00139002 -0.0193955,0.00888078 -0.000337698,0.000711213 -0.000619113,0.00144801 -0.000849362,0.00221209 -0.000535542,0.00177206 -0.000784551,0.00368398 -0.000745324,0.00573916 0.000139855,0.00485057 0.00381019,0.0119866 0.0110144,0.021408 0.0110861,0.0144085 0.017736,0.0234137 0.0199515,0.0270159 0.00706778,0.0116369 0.0106,0.022723 0.0106,0.0332513 0,0.0135779 -0.00422634,0.0247304 -0.012679,0.0334594 -0.00789668,0.00817468 -0.0185649,0.0132333 -0.0320029,0.0151708 -0.00494267,0.00116489 -0.0103697,0.000830601 -0.0154352,0.000830601l0 -0.0105966c0.000805018,0 0.00159639,-1.53499e-005 0.00238094,-3.7522e-005 0.000989217,-2.89943e-005 0.00196308,-7.5044e-005 0.00292331,-0.000144971 0.00921507,-0.000649813 0.0169327,-0.00305293 0.0231494,-0.00719911 0.000646402,-0.000429798 0.00127404,-0.000878356 0.00188804,-0.00134738 0.00997574,-0.00748223 0.0149645,-0.0175262 0.0149645,-0.0301353 0,-0.00928158 -0.00353389,-0.0191209 -0.0106,-0.0295111 -0.00664993,-0.00858913 -0.0132999,-0.01718 -0.0199515,-0.0257691 -0.00705073,-0.00995527 -0.0106511,-0.0189452 -0.0108029,-0.0269698l-3.41109e-006 -4.94608e-005 -1.70555e-006 -0.000924406c8.35718e-005,-0.00641285 0.00244064,-0.0121298 0.00706778,-0.0171527 0.0023366,-0.00253615 0.00489662,-0.00446342 0.00768178,-0.00577669 0.0063975,-0.00301882 0.0139718,-0.00212341 0.0208452,-0.00212341z"/>
   <path id="_147276760" class="fil2" d="M0.00238094 0.160091c1.8761e-005,-0.00133715 0.00111202,-0.00241676 0.00245428,-0.00241676l6.48108e-005 0c0.00605128,-5.11664e-006 0.0114886,-0.000702685 0.016305,-0.00208759 0.00259414,-0.000745324 0.0050109,-0.00169361 0.00724857,-0.00283973"/>
   <ellipse id="_147276232" class="fil3" cx="0.955801" cy="0.0173813" rx="0.0116992" ry="0.012315"/>
  </g>
 </g>
</svg>
